<svg id="Layer_2" data-name="Layer 2" xmlns="http://www.w3.org/2000/svg" viewBox="0 0 50 50"><defs><style>.cls-1{fill:#fff;}.cls-2,.cls-3{fill:none;stroke-linecap:round;stroke-linejoin:round;}.cls-2{stroke:#009993;stroke-width:1.03px;}.cls-3{stroke:#673894;stroke-width:0.52px;}</style></defs><title>Web_Icons</title><circle class="cls-1" cx="25" cy="25" r="23.5"/><path class="cls-2" d="M40.77,33.33V14h1.5V35.46l-14.82.15h0A2.61,2.61,0,0,1,25,37.26h0a2.59,2.59,0,0,1-2.38-1.57h0L7.73,35.46V14h1.5V33.33"/><path class="cls-2" d="M40.77,33.33H28.2a3.25,3.25,0,0,0-2.93,2h-.52a3.21,3.21,0,0,0-2.95-2H9.23V12.74H21.8A3.19,3.19,0,0,1,25,15.93h0a3.19,3.19,0,0,1,3.2-3.19H40.77Z"/><path class="cls-2" d="M9.23,31.62H21.8a3.2,3.2,0,0,1,3.2,3.2V15.93"/><path class="cls-2" d="M25,15.93a3.19,3.19,0,0,0-3.2-3.19H9.23V31.62"/><path class="cls-2" d="M25,15.93a3.19,3.19,0,0,1,3.2-3.19H40.77"/><path class="cls-2" d="M9.23,31.62v1.71H21.8a3.21,3.21,0,0,1,2.95,2h.52a3.25,3.25,0,0,1,2.93-2H40.77V31.62"/><line class="cls-3" x1="11.83" y1="16.84" x2="21.9" y2="16.84"/><line class="cls-3" x1="11.83" y1="19" x2="21.9" y2="19"/><line class="cls-3" x1="11.83" y1="21.16" x2="21.9" y2="21.16"/><line class="cls-3" x1="11.83" y1="23.32" x2="21.9" y2="23.32"/><line class="cls-3" x1="11.83" y1="25.49" x2="21.9" y2="25.49"/><line class="cls-3" x1="11.83" y1="27.65" x2="21.9" y2="27.65"/><line class="cls-3" x1="27.85" y1="17.07" x2="37.92" y2="17.07"/><line class="cls-3" x1="27.85" y1="19.23" x2="37.92" y2="19.23"/><line class="cls-3" x1="27.85" y1="21.4" x2="37.92" y2="21.4"/><line class="cls-3" x1="27.85" y1="23.56" x2="37.92" y2="23.56"/><line class="cls-3" x1="27.85" y1="25.72" x2="37.92" y2="25.72"/><line class="cls-3" x1="27.85" y1="27.88" x2="37.92" y2="27.88"/><path class="cls-2" d="M40.77,12.74V31.62H28.2a3.2,3.2,0,0,0-3.2,3.2V15.93"/></svg>