<svg id="Layer_2" data-name="Layer 2" xmlns="http://www.w3.org/2000/svg" viewBox="0 0 50 50"><defs><style>.cls-1{fill:#fff;}.cls-2{fill:#009993;}.cls-3{fill:#673894;}</style></defs><title>Web_Icons</title><circle class="cls-1" cx="25" cy="25" r="23.5"/><polyline class="cls-2" points="26.24 35.71 26.24 41.41 23.76 41.41 23.76 36.59"/><polyline class="cls-2" points="23.76 14.4 23.76 8.59 26.24 8.59 26.24 14.09"/><path class="cls-3" d="M18.29,33.8a11,11,0,0,0,5.76,1.63c3.31,0,5.24-1.74,5.24-4.27,0-2.3-1.34-3.68-4.72-4.94C20.49,24.73,18,22.58,18,19.08c0-3.9,3.23-6.8,8.1-6.8a11.23,11.23,0,0,1,5.5,1.23l-.89,2.64A9.22,9.22,0,0,0,26,15c-3.42,0-4.72,2-4.72,3.75,0,2.34,1.52,3.49,5,4.83,4.23,1.64,6.35,3.68,6.35,7.36,0,3.86-2.82,7.25-8.73,7.25a12.93,12.93,0,0,1-6.39-1.64Z"/></svg>