<svg id="Layer_2" data-name="Layer 2" xmlns="http://www.w3.org/2000/svg" viewBox="0 0 50 50"><defs><style>.cls-1{fill:#fff;}.cls-2{fill:#673894;}.cls-3{fill:#009993;}</style></defs><title>Web_Icons_v2</title><circle class="cls-1" cx="25" cy="25" r="23.5"/><path class="cls-2" d="M25.88,15.36a8.41,8.41,0,0,0-5.77,1.46,8,8,0,0,0-3.23,4.72A7.89,7.89,0,0,0,18,27.75l0,.09c.5.87,1,1.83,1.46,2.84a19.34,19.34,0,0,1,1,2.37,7.16,7.16,0,0,1,.29,1.06c0,.11,0,.21.05.31a.81.81,0,0,0-.3.62v.41a.8.8,0,0,0,.8.8h1a.42.42,0,0,0,0-.83h-1v-.35h7.18v.35H25.41a.42.42,0,1,0,0,.83h3.15a.8.8,0,0,0,.8-.8V35a.81.81,0,0,0-.3-.62,8.61,8.61,0,0,1,.54-2,32.44,32.44,0,0,1,1.94-4.14l.27-.49a.18.18,0,0,0,0-.09,7.81,7.81,0,0,0,1.36-4.41A7.94,7.94,0,0,0,31.09,18,8.37,8.37,0,0,0,25.88,15.36Zm5.21,12a.36.36,0,0,0-.07.17l-.2.37a31.43,31.43,0,0,0-2,4.24,9,9,0,0,0-.58,2.06H21.63c0-.09,0-.19-.05-.29a10.79,10.79,0,0,0-.31-1.16,22.82,22.82,0,0,0-1-2.46c-.45-1-.93-1.91-1.41-2.76a.51.51,0,0,0-.07-.17,7.06,7.06,0,0,1-1.11-5.67,7.32,7.32,0,0,1,2.9-4.23,7.61,7.61,0,0,1,5.21-1.32,7.51,7.51,0,0,1,4.69,2.35,7.15,7.15,0,0,1,1.9,4.81A7,7,0,0,1,31.09,27.4Z"/><path class="cls-2" d="M24.2,36.25h.23a.42.42,0,0,0,0-.83H24.2a.42.42,0,1,0,0,.83Z"/><path class="cls-2" d="M24.2,38.22h.23a.42.42,0,0,0,0-.83H24.2a.42.42,0,1,0,0,.83Z"/><path class="cls-2" d="M29,36.6a.42.42,0,0,0-.42.41v.38H25.41a.42.42,0,1,0,0,.83h3.15a.8.8,0,0,0,.8-.8V37A.41.41,0,0,0,29,36.6Z"/><path class="cls-2" d="M20.93,36.6a.41.41,0,0,0-.41.41v.41a.8.8,0,0,0,.8.8h1a.42.42,0,0,0,0-.83h-1V37A.42.42,0,0,0,20.93,36.6Z"/><path class="cls-2" d="M24.2,40.19h.23a.41.41,0,0,0,0-.82H24.2a.41.41,0,1,0,0,.82Z"/><path class="cls-2" d="M29,38.57a.42.42,0,0,0-.42.42v.38H25.41a.41.41,0,1,0,0,.82h1.81a2.35,2.35,0,0,1-2.28,1.12,2.65,2.65,0,0,1-2.18-.9.41.41,0,0,0-.57-.12.42.42,0,0,0-.12.57,3.42,3.42,0,0,0,2.87,1.28c1.65,0,3-.84,3.13-2h.49a.8.8,0,0,0,.8-.8V39A.41.41,0,0,0,29,38.57Z"/><path class="cls-2" d="M22.73,39.78a.41.41,0,0,0-.41-.41h-1V39a.42.42,0,0,0-.42-.42.41.41,0,0,0-.41.42v.4a.8.8,0,0,0,.8.8h1A.41.41,0,0,0,22.73,39.78Z"/><path class="cls-3" d="M25.07,13.07a.41.41,0,0,0,.41-.42V7.37a.41.41,0,1,0-.82,0v5.28A.41.41,0,0,0,25.07,13.07Z"/><path class="cls-3" d="M19.47,14.49a.35.35,0,0,0,.2-.05.41.41,0,0,0,.15-.57L17.18,9.3a.41.41,0,1,0-.71.41l2.64,4.58A.41.41,0,0,0,19.47,14.49Z"/><path class="cls-3" d="M15.53,17.76,11,15.12a.41.41,0,1,0-.42.71l4.58,2.65a.5.5,0,0,0,.21.05.38.38,0,0,0,.35-.21A.4.4,0,0,0,15.53,17.76Z"/><path class="cls-3" d="M39.61,15.51a.43.43,0,0,0-.57-.15L34.47,18a.41.41,0,0,0-.15.57.39.39,0,0,0,.35.2.38.38,0,0,0,.21-.05l4.58-2.64A.43.43,0,0,0,39.61,15.51Z"/><path class="cls-3" d="M33.48,9.29a.4.4,0,0,0-.56.15L30.28,14a.41.41,0,0,0,.15.57.41.41,0,0,0,.21.05.39.39,0,0,0,.35-.2l2.65-4.58A.41.41,0,0,0,33.48,9.29Z"/><path class="cls-2" d="M23.48,17.72a6,6,0,0,0-4.42,4.34.42.42,0,0,0,.32.49h.09a.42.42,0,0,0,.4-.33,5.2,5.2,0,0,1,3.82-3.71A.43.43,0,0,0,24,18,.42.42,0,0,0,23.48,17.72Z"/></svg>