<svg id="Layer_2" data-name="Layer 2" xmlns="http://www.w3.org/2000/svg" viewBox="0 0 50 50"><defs><style>.cls-1{fill:#673894;}.cls-2{fill:#009993;}.cls-3{fill:#fff;}.cls-4{fill:#808184;}</style></defs><title>New_and_Improved_Recess_Logo</title><circle class="cls-1" cx="25" cy="25" r="15.52"/><path class="cls-2" d="M25,3.07A21.93,21.93,0,1,0,46.93,25,21.93,21.93,0,0,0,25,3.07Zm0,39.39A17.46,17.46,0,1,1,42.46,25,17.46,17.46,0,0,1,25,42.46Z"/><path class="cls-3" d="M33.18,16.51a6.21,6.21,0,0,0-.7-1.23l-.22-.3-.06-.07a6,6,0,0,0-4.1-2.19l-.19,0-.35,0h-.13a6.2,6.2,0,0,0-6.08,7.6A6.23,6.23,0,0,0,14.11,30.4c6.63,6.23,18.39,4.33,18.39,4.33S37,24.4,33.18,16.51Z"/><path class="cls-4" d="M44.11,42.73a1.33,1.33,0,1,1-1.32-1.35A1.34,1.34,0,0,1,44.11,42.73Zm-2.44,0a1.11,1.11,0,1,0,1.11-1.19A1.13,1.13,0,0,0,41.67,42.75Zm1.65-.52a.93.93,0,0,0-.42-.1.57.57,0,0,0-.62.62.59.59,0,0,0,.62.62.79.79,0,0,0,.44-.12l.06.17a1,1,0,0,1-.54.14.77.77,0,0,1-.81-.8.82.82,0,0,1,.84-.82,1,1,0,0,1,.49.12Z"/></svg>