<svg id="Layer_2" data-name="Layer 2" xmlns="http://www.w3.org/2000/svg" viewBox="0 0 177.92 50"><defs><style>.cls-1{fill:#673894;}.cls-2{fill:#009993;}.cls-3{fill:#fff;}.cls-4{fill:#808184;}</style></defs><title>New_and_Improved_Recess_Logo</title><circle class="cls-1" cx="26.12" cy="25" r="13.66"/><path class="cls-2" d="M26.12,5.7A19.3,19.3,0,1,0,45.42,25,19.31,19.31,0,0,0,26.12,5.7Zm0,34.67A15.37,15.37,0,1,1,41.49,25,15.38,15.38,0,0,1,26.12,40.37Z"/><path class="cls-3" d="M33.31,17.53a5.54,5.54,0,0,0-.61-1.09l-.19-.26-.06-.06a5.21,5.21,0,0,0-3.61-1.93h-.17l-.3,0h-.12a5.48,5.48,0,0,0-5.49,5.48,5.19,5.19,0,0,0,.14,1.2,5.49,5.49,0,0,0-6.37,8.91c5.84,5.49,16.19,3.81,16.19,3.81S36.66,24.47,33.31,17.53Z"/><path class="cls-2" d="M51.79,36.78v-.22h1.53v.22l-.71.08H52.5Zm.82,3.15.71.09v.22H51.79V40l.71-.09Zm-.3-1.67c0-.57,0-1.14,0-1.7h.53c0,.55,0,1.12,0,1.7v.27c0,.57,0,1.14,0,1.71h-.53c0-.56,0-1.13,0-1.71Z"/><path class="cls-2" d="M53.85,40l.51-.07h.1l.47.07v.22H53.85Zm0-2.81h.64v.3h-.06l-.58-.08Zm.42,0h.22l0,1.36v1.67h-.27Zm0,0h.48l1.15,2.66h-.19l1.09-2.66h.27l-1.23,3H55.6ZM56.47,40l.58-.07h.11l.63.07v.22H56.47Zm.4-1.2V37.21h.49c0,.46,0,.93,0,1.41v.21c0,.47,0,.94,0,1.41h-.5C56.87,39.78,56.88,39.31,56.87,38.82Zm.23-1.61h.69v.22l-.63.08H57.1Z"/><path class="cls-2" d="M58.41,37.43v-.22h.68v.3H59ZM59.14,40l.63.07v.22H58.41V40L59,40Zm-.29-1.33c0-.47,0-.94,0-1.41h.51c0,.46,0,.93,0,1.41v.26c0,.48,0,.89,0,1.36h-.51c0-.46,0-.93,0-1.41Zm.73.45h-.49v-.25h.59c.54,0,.75-.28.75-.69s-.25-.67-.82-.67h-.52v-.25h.62c.81,0,1.23.39,1.23.92S60.58,39.07,59.58,39.07Z"/><path class="cls-2" d="M61.38,37.43v-.22h.69v.3h0ZM62.12,40l.63.07v.22H61.38V40L62,40Zm-.29-1.33c0-.47,0-.94,0-1.41h.52c0,.48,0,.91,0,1.41v.17c0,.51,0,1,0,1.45h-.52c0-.46,0-.93,0-1.41Zm.24,0h.58c.52,0,.75-.24.75-.59s-.2-.55-.68-.55h-.65v-.25h.65c.75,0,1.19.3,1.19.8s-.31.72-1,.77l0,0a.76.76,0,0,1,.71.63l.21.68L63.73,40l.49.06v.22a1.13,1.13,0,0,1-.35,0c-.31,0-.45-.08-.51-.32l-.18-.71c-.09-.38-.28-.42-.67-.42h-.44Z"/><path class="cls-2" d="M67.55,38.73a1.5,1.5,0,0,1-1.47,1.58,1.47,1.47,0,0,1-1.48-1.58,1.51,1.51,0,0,1,1.48-1.59A1.48,1.48,0,0,1,67.55,38.73ZM66.08,40c.66,0,.91-.68.91-1.31s-.25-1.32-.91-1.32-.91.68-.91,1.32S65.42,40,66.08,40Z"/><path class="cls-2" d="M68.66,37.51,68,37.43v-.22h1.32v.25l-.57,0Zm-.39-.3h.52l.94,2.43h-.11l.91-2.43h.28l-1.1,3.06H69.5Zm2.22.3-.46,0v-.25h1.11v.22l-.55.08Z"/><path class="cls-2" d="M71.53,37.43v-.22h1.36v.22l-.63.08h-.1ZM72.26,40l.63.07v.22H71.53V40l.63-.07ZM72,38.62c0-.47,0-.94,0-1.41h.52c0,.46,0,.93,0,1.41v.21c0,.47,0,.94,0,1.41H72c0-.46,0-.93,0-1.41Z"/><path class="cls-2" d="M73.49,40,74,40h.11l.55.07v.22H73.49Zm.28-2.64.32.13-.57-.08v-.22h.75l2,2.44v.62h-.16Zm.12-.06h.26v2.92h-.26Zm1.58-.11h1.16v.22l-.48.08h-.1l-.58-.08Zm.5,0h.26v3.06L76,40Z"/><path class="cls-2" d="M79.88,40a2.48,2.48,0,0,1-1.06.27,1.59,1.59,0,1,1,0-3.17,2,2,0,0,1,1,.2l0,.67h-.33l-.13-.67.34.1v.32a1.18,1.18,0,0,0-.82-.35c-.64,0-1.12.46-1.12,1.32s.43,1.3,1.17,1.3a1.77,1.77,0,0,0,.71-.16l-.25.27v-.28c0-.35,0-.71,0-1.06h.51c0,.36,0,.73,0,1.06Zm-1-1V38.8h1.28V39l-.55.05h-.1Z"/><path class="cls-2" d="M81.94,37.48l.24-.27L82,38h-.29l0-.83h2.63l0,.83h-.3L84,37.21l.24.27ZM83.12,40l.68.07v.22H82.34V40L83,40Zm-.29-1.33c0-.47,0-.94,0-1.41h.51c0,.46,0,.93,0,1.41v.21c0,.47,0,.94,0,1.41h-.51c0-.46,0-.93,0-1.41Z"/><path class="cls-2" d="M84.87,37.43v-.22h1.37v.22l-.63.08h-.1ZM85.61,40l.63.07v.22H84.87V40l.64-.07Zm-.29-1.33c0-.47,0-.94,0-1.41h.52c0,.46,0,.93,0,1.41v.16c0,.52,0,1,0,1.46H85.3c0-.46,0-.93,0-1.41Zm.24.21v-.24h2v.24Zm1.32-1.4v-.22h1.37v.22l-.64.08h-.1ZM87.61,40l.64.07v.22H86.88V40l.63-.07Zm-.29-1.33c0-.47,0-.94,0-1.41h.51c0,.46,0,.93,0,1.41v.21c0,.47,0,.94,0,1.41h-.51c0-.46,0-.93,0-1.46Z"/><path class="cls-2" d="M88.87,37.43v-.22h.68v.3h0ZM89.55,40v.29h-.68V40L89.5,40Zm-.24-1.33c0-.47,0-.94,0-1.41h.52c0,.46,0,.93,0,1.38v.22c0,.49,0,1,0,1.43h-.52c0-.46,0-.93,0-1.41Zm1.53-1.41.25.27H89.55v-.27h1.72l0,.85H91Zm-.2,1.6H89.55v-.24h1.09Zm.76.58,0,.85H89.55V40h1.63l-.24.27.16-.85Zm-.94-.76.08-.5h.24v1.11h-.24l-.08-.53Z"/><path class="cls-2" d="M96.21,38.73a1.5,1.5,0,0,1-1.47,1.58,1.48,1.48,0,0,1-1.49-1.58,1.52,1.52,0,0,1,1.49-1.59A1.48,1.48,0,0,1,96.21,38.73ZM94.74,40c.66,0,.9-.68.9-1.31s-.24-1.32-.9-1.32-.91.68-.91,1.32S94.08,40,94.74,40Zm-.27.21V40l.48.1c0,.52.23.8.68.8a1.77,1.77,0,0,0,.36,0l.05.19a1.24,1.24,0,0,1-.6.15A.94.94,0,0,1,94.47,40.25Z"/><path class="cls-2" d="M96.82,37.43v-.22H98.2v.22l-.63.08h-.11Zm1.66,2.49c.52,0,.8-.28.8-1.08V37.21h.26V39c0,1-.51,1.35-1.14,1.35a1.09,1.09,0,0,1-1.19-1.22v-.48c0-.46,0-.93,0-1.4h.51c0,.46,0,.93,0,1.4v.31C97.7,39.7,98,39.92,98.48,39.92Zm.83-2.41-.51-.08v-.22H100v.22l-.54.08Z"/><path class="cls-2" d="M99.89,40l.49-.08h.1L101,40v.22H99.89Zm1.43-2.83h.32l1.1,3.05h-.5l-.95-2.62h.12l-1,2.61h-.24ZM100.77,39h1.28l.09.25h-1.45Zm.92,1,.61-.08h.1l.6.08v.22h-1.31Z"/><path class="cls-2" d="M103.4,37.43v-.22h1.37v.22l-.64.08H104Zm.68,2.52v.29h-.68V40L104,40Zm-.25-2.74h.51c0,.47,0,.94,0,1.41v.32c0,.37,0,.84,0,1.3h-.51c0-.47,0-.94,0-1.41v-.21C103.84,38.14,103.84,37.67,103.83,37.21Zm2,2.14,0,.89h-1.72V40h1.54l-.3.27.21-.89Z"/><path class="cls-2" d="M106.45,37.43v-.22h1.37v.22l-.63.08h-.1Zm.74,2.52.63.07v.22h-1.37V40l.64-.07Zm-.29-1.33c0-.47,0-.94,0-1.41h.52c0,.46,0,.93,0,1.41v.21c0,.47,0,.94,0,1.41h-.52c0-.46,0-.93,0-1.41Z"/><path class="cls-2" d="M108.5,37.48l.24-.27-.16.83h-.3l0-.83h2.62l0,.83h-.29l-.17-.83.24.27ZM109.68,40l.68.07v.22H108.9V40l.68-.07Zm-.29-1.33c0-.47,0-.94,0-1.41h.52c0,.46,0,.93,0,1.41v.21c0,.47,0,.94,0,1.41h-.52c0-.46,0-.93,0-1.41Z"/><path class="cls-2" d="M111.22,37.43v-.22h1.39v.22l-.63.08h-.1Zm1.31,1.83-1-2H112L112.9,39h-.19l.89-1.78h.27l-1,2Zm.2.69.69.07v.22H112V40l.69-.07Zm-.29-1.09h.49c0,.42,0,1,0,1.38h-.51C112.44,39.86,112.44,39.29,112.44,38.86Zm1.14-1.35-.53-.08v-.22h1.11v.22l-.49.08Z"/><path class="cls-2" d="M118.79,38.73a1.5,1.5,0,0,1-1.47,1.58,1.48,1.48,0,0,1-1.49-1.58,1.52,1.52,0,0,1,1.49-1.59A1.48,1.48,0,0,1,118.79,38.73ZM117.32,40c.66,0,.9-.68.9-1.31s-.24-1.32-.9-1.32-.92.68-.92,1.32S116.66,40,117.32,40Z"/><path class="cls-2" d="M119.43,37.43v-.22h.69v.3h-.05Zm.74,2.52.62.07v.22h-1.36V40l.64-.07Zm-.3-1.33c0-.47,0-.94,0-1.41h.51c0,.46,0,.93,0,1.38v.22c0,.49,0,1,0,1.43h-.51c0-.46,0-.93,0-1.41Zm1.54-1.41.24.27h-1.53v-.27h1.71l0,.85h-.29Zm-.16,1.6h-1.13v-.24h1.13Zm-.18-.18.08-.5h.24V39.3h-.24l-.08-.53Z"/><path class="cls-2" d="M123.67,37.43v-.22H125v.22l-.63.08h-.1Zm.69,2.52v.29h-.69V40l.64-.07Zm-.26-2.74h.51c0,.47,0,.94,0,1.41v.32c0,.37,0,.84,0,1.3h-.51c0-.47,0-.94,0-1.41v-.21C124.11,38.14,124.11,37.67,124.1,37.21Zm2,2.14,0,.89h-1.72V40h1.53l-.29.27.21-.89Z"/><path class="cls-2" d="M126.73,37.43v-.22h1.37v.22l-.64.08h-.1Zm.73,2.52.64.07v.22h-1.37V40l.63-.07Zm-.29-1.33c0-.47,0-.94,0-1.41h.51c0,.46,0,.93,0,1.41v.21c0,.47,0,.94,0,1.41h-.51c0-.46,0-.93,0-1.41Z"/><path class="cls-2" d="M128.72,37.43v-.22h.69v.3h0Zm.74,2.52.62.07v.22h-1.36V40l.64-.07Zm-.3-1.33c0-.47,0-.94,0-1.41h.51c0,.46,0,.93,0,1.38v.22c0,.49,0,1,0,1.43h-.51c0-.46,0-.93,0-1.41Zm1.54-1.41.24.27h-1.53v-.27h1.71l0,.85h-.29Zm-.16,1.6h-1.13v-.24h1.13Zm-.18-.18.08-.5h.24V39.3h-.24l-.08-.53Z"/><path class="cls-2" d="M131.67,37.43v-.22h.69v.3h-.05Zm.69,2.52v.29h-.69V40l.64-.07Zm-.24-1.33c0-.47,0-.94,0-1.41h.52c0,.46,0,.93,0,1.38v.22c0,.49,0,1,0,1.43h-.52c0-.46,0-.93,0-1.41Zm1.53-1.41.24.27h-1.53v-.27h1.71l0,.85h-.3Zm-.2,1.6h-1.09v-.24h1.09Zm.75.58,0,.85h-1.82V40H134l-.24.27.16-.85Zm-.93-.76.08-.5h.23v1.11h-.23l-.08-.53Z"/><path class="cls-2" d="M136,37.43v-.22h.69v.3h0Zm.74,2.52.63.07v.22H136V40l.64-.07Zm-.29-1.33c0-.47,0-.94,0-1.41H137c0,.46,0,.93,0,1.38v.22c0,.49,0,1,0,1.43h-.52c0-.46,0-.93,0-1.41ZM138,37.21l.24.27h-1.53v-.27h1.71l0,.85h-.29Zm-.16,1.6h-1.13v-.24h1.13Zm-.17-.18.07-.5H138V39.3h-.25l-.07-.53Z"/><path class="cls-2" d="M142,38.73a1.5,1.5,0,0,1-1.47,1.58A1.48,1.48,0,0,1,139,38.73a1.52,1.52,0,0,1,1.49-1.59A1.48,1.48,0,0,1,142,38.73ZM140.5,40c.66,0,.9-.68.9-1.31s-.24-1.32-.9-1.32-.91.68-.91,1.32S139.84,40,140.5,40Z"/><path class="cls-2" d="M142.61,37.43v-.22h.69v.3h-.05Zm.74,2.52L144,40v.22h-1.37V40l.64-.07Zm-.29-1.33c0-.47,0-.94,0-1.41h.52c0,.48,0,.91,0,1.41v.17c0,.51,0,1,0,1.45H143c0-.46,0-.93,0-1.41Zm.24,0h.58c.52,0,.75-.24.75-.59s-.21-.55-.68-.55h-.65v-.25H144c.75,0,1.19.3,1.19.8s-.32.72-1,.77l0,0a.74.74,0,0,1,.71.63l.22.68L145,40l.49.06v.22a1.13,1.13,0,0,1-.35,0c-.31,0-.45-.08-.51-.32l-.18-.71c-.09-.38-.28-.42-.67-.42h-.44Z"/><path class="cls-2" d="M147.2,37.48l.24-.27-.16.83H147l0-.83h2.63l0,.83h-.3l-.17-.83.25.27ZM148.38,40l.69.07v.22H147.6V40l.68-.07Zm-.29-1.33c0-.47,0-.94,0-1.41h.51c0,.46,0,.93,0,1.41v.21c0,.47,0,.94,0,1.41h-.51c0-.46,0-.93,0-1.41Z"/><path class="cls-2" d="M150.14,37.43v-.22h.69v.3h-.05Zm.69,2.52v.29h-.69V40l.64-.07Zm-.24-1.33c0-.47,0-.94,0-1.41h.52c0,.46,0,.93,0,1.38v.22c0,.49,0,1,0,1.43h-.52c0-.46,0-.93,0-1.41Zm1.53-1.41.24.27h-1.53v-.27h1.71l0,.85h-.29Zm-.21,1.6h-1.08v-.24h1.08Zm.76.58,0,.85h-1.82V40h1.63l-.24.27.16-.85Zm-.93-.76.08-.5h.23v1.11h-.23l-.08-.53Z"/><path class="cls-2" d="M152.94,40l.49-.08h.11l.54.08v.22h-1.14Zm1.44-2.83h.32l1.1,3.05h-.5l-1-2.62h.12l-1,2.61h-.24ZM153.82,39h1.29l.08.25h-1.45Zm.93,1,.61-.08h.1l.6.08v.22h-1.31Z"/><path class="cls-2" d="M158.82,39.73V40l-.34.08.13-.69h.32l0,.67a2.32,2.32,0,0,1-1,.21,1.54,1.54,0,0,1-1.63-1.58,1.57,1.57,0,0,1,1.62-1.59,2,2,0,0,1,.93.21l0,.67h-.33l-.12-.67.33.07v.34a1.08,1.08,0,0,0-.76-.35c-.61,0-1.13.44-1.13,1.32S157.32,40,158,40A1.34,1.34,0,0,0,158.82,39.73Z"/><path class="cls-2" d="M159.51,37.43v-.22h1.36v.22l-.63.08h-.1Zm.73,2.52.63.07v.22h-1.36V40l.63-.07ZM160,38.62c0-.47,0-.94,0-1.41h.51c0,.46,0,.93,0,1.41v.16c0,.52,0,1,0,1.46h-.51c0-.46,0-.93,0-1.41Zm.24.21v-.24h2v.24Zm1.32-1.4v-.22h1.37v.22l-.64.08h-.1Zm.73,2.52.64.07v.22h-1.37V40l.63-.07ZM162,38.62c0-.47,0-.94,0-1.41h.51c0,.46,0,.93,0,1.41v.21c0,.47,0,.94,0,1.41h-.51c0-.46,0-.93,0-1.46Z"/><path class="cls-2" d="M163.5,37.43v-.22h.69v.3h-.05Zm.69,2.52v.29h-.69V40l.64-.07Zm-.25-1.33c0-.47,0-.94,0-1.41h.51c0,.46,0,.93,0,1.38v.22c0,.49,0,1,0,1.43h-.51c0-.46,0-.93,0-1.41Zm1.54-1.41.24.27h-1.53v-.27h1.71l0,.85h-.29Zm-.21,1.6h-1.08v-.24h1.08Zm.76.58,0,.85h-1.81V40h1.63l-.24.27.16-.85Zm-.93-.76.08-.5h.23v1.11h-.23l-.08-.53Z"/><path class="cls-2" d="M166.58,37.43v-.22h.69v.3h-.05Zm.74,2.52L168,40v.22h-1.37V40l.64-.07ZM167,38.62c0-.47,0-.94,0-1.41h.52c0,.48,0,.91,0,1.41v.17c0,.51,0,1,0,1.45H167c0-.46,0-.93,0-1.41Zm.24,0h.58c.53,0,.75-.24.75-.59s-.2-.55-.67-.55h-.66v-.25h.66c.74,0,1.18.3,1.18.8s-.31.72-1,.77l0,0a.76.76,0,0,1,.71.63l.21.68-.16-.09.48.06v.22a1.08,1.08,0,0,1-.35,0c-.3,0-.45-.08-.51-.32l-.18-.71c-.09-.38-.28-.42-.67-.42h-.44Z"/><path class="cls-2" d="M171.44,39.53c0-.28-.19-.39-.57-.51l-.18-.07c-.49-.18-.84-.44-.84-.93s.46-.88,1.09-.88a1.38,1.38,0,0,1,.79.25l0,.61h-.32l-.15-.73.35.19v.29a.88.88,0,0,0-.67-.34c-.36,0-.63.17-.63.49s.19.41.53.53l.19.07c.61.21.87.49.87.93s-.48.88-1.14.88a2,2,0,0,1-.94-.24l0-.66h.33l.13.74-.35-.16v-.26a1.23,1.23,0,0,0,.78.31C171.15,40,171.44,39.85,171.44,39.53Z"/><path class="cls-2" d="M172.59,39.92a.39.39,0,1,1,.38.39A.39.39,0,0,1,172.59,39.92Z"/><path class="cls-1" d="M107.6,26.05a5.95,5.95,0,1,1,.14-4.83l3-3a10,10,0,1,0-.17,10.87Z"/><path class="cls-1" d="M122.5,29.44a6,6,0,0,1-2.24-.44L128,21.22h0l3-3a10,10,0,1,0-.16,10.87l-3-3A6,6,0,0,1,122.5,29.44Zm0-11.91a6,6,0,0,1,2.73.67l-8,8a6,6,0,0,1,5.28-8.71Z"/><path class="cls-1" d="M82.67,29.44A6,6,0,0,1,80.43,29l7.75-7.78h0l3-3A10,10,0,1,0,91,29.06l-3-3A6,6,0,0,1,82.67,29.44Zm0-11.91a6,6,0,0,1,2.73.67l-8,8a6,6,0,0,1,5.28-8.71Z"/><path class="cls-1" d="M71.51,18.23a9.86,9.86,0,0,0-19.72,0V33.54h3.88V26.06a9.71,9.71,0,0,0,5.48,2l3.46,5.47h4.61l-3.9-6.16A9.87,9.87,0,0,0,71.51,18.23ZM57.83,22.84l0,0-.08-.08a10.57,10.57,0,0,0-2.06-1.51v-3a6,6,0,1,1,2.16,4.61Z"/><path class="cls-1" d="M146.11,33.44H134.57v-4.1h11.54a1.91,1.91,0,1,0,0-3.81h-7.54a6,6,0,1,1,0-12h11.49v4.1H138.57a1.91,1.91,0,0,0,0,3.81h7.54a6,6,0,1,1,0,12Z"/><path class="cls-1" d="M167.36,33.44H155.82v-4.1h11.54a1.91,1.91,0,0,0,0-3.81h-7.54a6,6,0,1,1,0-12h11.49v4.1H159.82a1.91,1.91,0,1,0,0,3.81h7.54a6,6,0,1,1,0,12Z"/><path class="cls-4" d="M173.36,34.76a1.06,1.06,0,1,1-1.05-1.08A1.06,1.06,0,0,1,173.36,34.76Zm-1.94,0a.88.88,0,1,0,1.76,0,.88.88,0,1,0-1.76,0Zm1.31-.41a.64.64,0,0,0-.33-.08.45.45,0,0,0-.49.49.46.46,0,0,0,.49.49.69.69,0,0,0,.35-.09l0,.13a.79.79,0,0,1-.43.11.61.61,0,0,1-.64-.63.65.65,0,0,1,.67-.65.76.76,0,0,1,.39.09Z"/></svg>